<mxfile host="app.diagrams.net" agent="Mozilla/5.0 (X11; Linux x86_64) AppleWebKit/537.36 (KHTML, like Gecko) Chrome/134.0.0.0 Safari/537.36" version="26.2.9">
  <diagram id="6a731a19-8d31-9384-78a2-239565b7b9f0" name="Page-1">
    <mxGraphModel dx="1250" dy="669" grid="1" gridSize="10" guides="1" tooltips="1" connect="1" arrows="1" fold="1" page="1" pageScale="1" pageWidth="1169" pageHeight="827" background="none" math="0" shadow="0">
      <root>
        <mxCell id="0" />
        <mxCell id="1" parent="0" />
        <mxCell id="6FYP25Bmxtu8-Mmao90G-55" value="Start CLI Task Tracker" style="whiteSpace=wrap;strokeWidth=2;" vertex="1" parent="1">
          <mxGeometry x="322" y="20" width="218" height="54" as="geometry" />
        </mxCell>
        <mxCell id="6FYP25Bmxtu8-Mmao90G-56" value="Is JSON created?" style="rhombus;strokeWidth=2;whiteSpace=wrap;" vertex="1" parent="1">
          <mxGeometry x="341" y="124" width="180" height="180" as="geometry" />
        </mxCell>
        <mxCell id="6FYP25Bmxtu8-Mmao90G-57" value="Command?" style="rhombus;strokeWidth=2;whiteSpace=wrap;" vertex="1" parent="1">
          <mxGeometry x="363" y="480" width="137" height="137" as="geometry" />
        </mxCell>
        <mxCell id="6FYP25Bmxtu8-Mmao90G-58" value="Create JSON file" style="whiteSpace=wrap;strokeWidth=2;" vertex="1" parent="1">
          <mxGeometry x="411" y="376" width="180" height="54" as="geometry" />
        </mxCell>
        <mxCell id="6FYP25Bmxtu8-Mmao90G-59" value="Tasker add" style="whiteSpace=wrap;strokeWidth=2;" vertex="1" parent="1">
          <mxGeometry x="20" y="679" width="138" height="54" as="geometry" />
        </mxCell>
        <mxCell id="6FYP25Bmxtu8-Mmao90G-60" value="Tasker update" style="whiteSpace=wrap;strokeWidth=2;" vertex="1" parent="1">
          <mxGeometry x="208" y="679" width="160" height="54" as="geometry" />
        </mxCell>
        <mxCell id="6FYP25Bmxtu8-Mmao90G-61" value="Tasker delete" style="whiteSpace=wrap;strokeWidth=2;" vertex="1" parent="1">
          <mxGeometry x="419" y="679" width="155" height="54" as="geometry" />
        </mxCell>
        <mxCell id="6FYP25Bmxtu8-Mmao90G-62" value="Tasker mark (In progress / Complete)" style="whiteSpace=wrap;strokeWidth=2;" vertex="1" parent="1">
          <mxGeometry x="624" y="667" width="260" height="78" as="geometry" />
        </mxCell>
        <mxCell id="6FYP25Bmxtu8-Mmao90G-63" value="Tasker list" style="whiteSpace=wrap;strokeWidth=2;" vertex="1" parent="1">
          <mxGeometry x="1016" y="679" width="131" height="54" as="geometry" />
        </mxCell>
        <mxCell id="6FYP25Bmxtu8-Mmao90G-64" value="complete" style="whiteSpace=wrap;strokeWidth=2;" vertex="1" parent="1">
          <mxGeometry x="755" y="795" width="125" height="54" as="geometry" />
        </mxCell>
        <mxCell id="6FYP25Bmxtu8-Mmao90G-65" value="in progress" style="whiteSpace=wrap;strokeWidth=2;" vertex="1" parent="1">
          <mxGeometry x="930" y="795" width="139" height="54" as="geometry" />
        </mxCell>
        <mxCell id="6FYP25Bmxtu8-Mmao90G-66" value="todo" style="whiteSpace=wrap;strokeWidth=2;" vertex="1" parent="1">
          <mxGeometry x="1119" y="795" width="91" height="54" as="geometry" />
        </mxCell>
        <mxCell id="6FYP25Bmxtu8-Mmao90G-67" value="all" style="whiteSpace=wrap;strokeWidth=2;" vertex="1" parent="1">
          <mxGeometry x="1260" y="795" width="76" height="54" as="geometry" />
        </mxCell>
        <mxCell id="6FYP25Bmxtu8-Mmao90G-68" value="Store in JSON" style="whiteSpace=wrap;strokeWidth=2;" vertex="1" parent="1">
          <mxGeometry x="333" y="795" width="162" height="54" as="geometry" />
        </mxCell>
        <mxCell id="6FYP25Bmxtu8-Mmao90G-69" value="Print TEXT" style="whiteSpace=wrap;strokeWidth=2;" vertex="1" parent="1">
          <mxGeometry x="345" y="899" width="138" height="54" as="geometry" />
        </mxCell>
        <mxCell id="6FYP25Bmxtu8-Mmao90G-70" value="Read from JSON" style="whiteSpace=wrap;strokeWidth=2;" vertex="1" parent="1">
          <mxGeometry x="1082" y="899" width="182" height="54" as="geometry" />
        </mxCell>
        <mxCell id="6FYP25Bmxtu8-Mmao90G-71" value="Print requested data" style="whiteSpace=wrap;strokeWidth=2;" vertex="1" parent="1">
          <mxGeometry x="1071" y="1003" width="204" height="54" as="geometry" />
        </mxCell>
        <mxCell id="6FYP25Bmxtu8-Mmao90G-72" value="" style="curved=1;startArrow=none;endArrow=block;exitX=0.5;exitY=1;entryX=0.5;entryY=0;rounded=0;" edge="1" parent="1" source="6FYP25Bmxtu8-Mmao90G-55" target="6FYP25Bmxtu8-Mmao90G-56">
          <mxGeometry relative="1" as="geometry">
            <Array as="points" />
          </mxGeometry>
        </mxCell>
        <mxCell id="6FYP25Bmxtu8-Mmao90G-73" value="Yes" style="curved=1;startArrow=none;endArrow=block;exitX=0.22;exitY=1;entryX=0.12;entryY=0;rounded=0;" edge="1" parent="1" source="6FYP25Bmxtu8-Mmao90G-56" target="6FYP25Bmxtu8-Mmao90G-57">
          <mxGeometry relative="1" as="geometry">
            <Array as="points">
              <mxPoint x="361" y="340" />
              <mxPoint x="361" y="455" />
            </Array>
          </mxGeometry>
        </mxCell>
        <mxCell id="6FYP25Bmxtu8-Mmao90G-74" value="No" style="curved=1;startArrow=none;endArrow=block;exitX=0.78;exitY=1;entryX=0.5;entryY=0.01;rounded=0;" edge="1" parent="1" source="6FYP25Bmxtu8-Mmao90G-56" target="6FYP25Bmxtu8-Mmao90G-58">
          <mxGeometry relative="1" as="geometry">
            <Array as="points">
              <mxPoint x="501" y="340" />
            </Array>
          </mxGeometry>
        </mxCell>
        <mxCell id="6FYP25Bmxtu8-Mmao90G-75" value="" style="curved=1;startArrow=none;endArrow=block;exitX=0.5;exitY=1.01;entryX=0.87;entryY=0;rounded=0;" edge="1" parent="1" source="6FYP25Bmxtu8-Mmao90G-58" target="6FYP25Bmxtu8-Mmao90G-57">
          <mxGeometry relative="1" as="geometry">
            <Array as="points">
              <mxPoint x="501" y="455" />
            </Array>
          </mxGeometry>
        </mxCell>
        <mxCell id="6FYP25Bmxtu8-Mmao90G-76" value="" style="curved=1;startArrow=none;endArrow=block;exitX=0;exitY=0.64;entryX=0.5;entryY=0;rounded=0;" edge="1" parent="1" source="6FYP25Bmxtu8-Mmao90G-57" target="6FYP25Bmxtu8-Mmao90G-59">
          <mxGeometry relative="1" as="geometry">
            <Array as="points">
              <mxPoint x="89" y="642" />
            </Array>
          </mxGeometry>
        </mxCell>
        <mxCell id="6FYP25Bmxtu8-Mmao90G-77" value="" style="curved=1;startArrow=none;endArrow=block;exitX=0;exitY=0.83;entryX=0.5;entryY=0;rounded=0;" edge="1" parent="1" source="6FYP25Bmxtu8-Mmao90G-57" target="6FYP25Bmxtu8-Mmao90G-60">
          <mxGeometry relative="1" as="geometry">
            <Array as="points">
              <mxPoint x="288" y="642" />
            </Array>
          </mxGeometry>
        </mxCell>
        <mxCell id="6FYP25Bmxtu8-Mmao90G-78" value="" style="curved=1;startArrow=none;endArrow=block;exitX=0.85;exitY=1;entryX=0.5;entryY=0;rounded=0;" edge="1" parent="1" source="6FYP25Bmxtu8-Mmao90G-57" target="6FYP25Bmxtu8-Mmao90G-61">
          <mxGeometry relative="1" as="geometry">
            <Array as="points">
              <mxPoint x="496" y="642" />
            </Array>
          </mxGeometry>
        </mxCell>
        <mxCell id="6FYP25Bmxtu8-Mmao90G-79" value="" style="curved=1;startArrow=none;endArrow=block;exitX=1;exitY=0.65;entryX=0.5;entryY=0;rounded=0;" edge="1" parent="1" source="6FYP25Bmxtu8-Mmao90G-57" target="6FYP25Bmxtu8-Mmao90G-62">
          <mxGeometry relative="1" as="geometry">
            <Array as="points">
              <mxPoint x="754" y="642" />
            </Array>
          </mxGeometry>
        </mxCell>
        <mxCell id="6FYP25Bmxtu8-Mmao90G-80" value="" style="curved=1;startArrow=none;endArrow=block;exitX=1;exitY=0.57;entryX=0.5;entryY=0;rounded=0;" edge="1" parent="1" source="6FYP25Bmxtu8-Mmao90G-57" target="6FYP25Bmxtu8-Mmao90G-63">
          <mxGeometry relative="1" as="geometry">
            <Array as="points">
              <mxPoint x="1082" y="642" />
            </Array>
          </mxGeometry>
        </mxCell>
        <mxCell id="6FYP25Bmxtu8-Mmao90G-81" value="" style="curved=1;startArrow=none;endArrow=block;exitX=0;exitY=0.79;entryX=0.5;entryY=0;rounded=0;" edge="1" parent="1" source="6FYP25Bmxtu8-Mmao90G-63" target="6FYP25Bmxtu8-Mmao90G-64">
          <mxGeometry relative="1" as="geometry">
            <Array as="points">
              <mxPoint x="817" y="770" />
            </Array>
          </mxGeometry>
        </mxCell>
        <mxCell id="6FYP25Bmxtu8-Mmao90G-82" value="" style="curved=1;startArrow=none;endArrow=block;exitX=0.24;exitY=1;entryX=0.5;entryY=0;rounded=0;" edge="1" parent="1" source="6FYP25Bmxtu8-Mmao90G-63" target="6FYP25Bmxtu8-Mmao90G-65">
          <mxGeometry relative="1" as="geometry">
            <Array as="points">
              <mxPoint x="999" y="770" />
            </Array>
          </mxGeometry>
        </mxCell>
        <mxCell id="6FYP25Bmxtu8-Mmao90G-83" value="" style="curved=1;startArrow=none;endArrow=block;exitX=0.77;exitY=1;entryX=0.5;entryY=0;rounded=0;" edge="1" parent="1" source="6FYP25Bmxtu8-Mmao90G-63" target="6FYP25Bmxtu8-Mmao90G-66">
          <mxGeometry relative="1" as="geometry">
            <Array as="points">
              <mxPoint x="1165" y="770" />
            </Array>
          </mxGeometry>
        </mxCell>
        <mxCell id="6FYP25Bmxtu8-Mmao90G-84" value="" style="curved=1;startArrow=none;endArrow=block;exitX=1;exitY=0.86;entryX=0.5;entryY=0;rounded=0;" edge="1" parent="1" source="6FYP25Bmxtu8-Mmao90G-63" target="6FYP25Bmxtu8-Mmao90G-67">
          <mxGeometry relative="1" as="geometry">
            <Array as="points">
              <mxPoint x="1298" y="770" />
            </Array>
          </mxGeometry>
        </mxCell>
        <mxCell id="6FYP25Bmxtu8-Mmao90G-85" value="" style="curved=1;startArrow=none;endArrow=block;exitX=0.5;exitY=1;entryX=0;entryY=0.26;rounded=0;" edge="1" parent="1" source="6FYP25Bmxtu8-Mmao90G-59" target="6FYP25Bmxtu8-Mmao90G-68">
          <mxGeometry relative="1" as="geometry">
            <Array as="points">
              <mxPoint x="89" y="770" />
            </Array>
          </mxGeometry>
        </mxCell>
        <mxCell id="6FYP25Bmxtu8-Mmao90G-86" value="" style="curved=1;startArrow=none;endArrow=block;exitX=0.5;exitY=1;entryX=0.1;entryY=0;rounded=0;" edge="1" parent="1" source="6FYP25Bmxtu8-Mmao90G-60" target="6FYP25Bmxtu8-Mmao90G-68">
          <mxGeometry relative="1" as="geometry">
            <Array as="points">
              <mxPoint x="288" y="770" />
            </Array>
          </mxGeometry>
        </mxCell>
        <mxCell id="6FYP25Bmxtu8-Mmao90G-87" value="" style="curved=1;startArrow=none;endArrow=block;exitX=0.5;exitY=1;entryX=0.76;entryY=0;rounded=0;" edge="1" parent="1" source="6FYP25Bmxtu8-Mmao90G-61" target="6FYP25Bmxtu8-Mmao90G-68">
          <mxGeometry relative="1" as="geometry">
            <Array as="points">
              <mxPoint x="496" y="770" />
            </Array>
          </mxGeometry>
        </mxCell>
        <mxCell id="6FYP25Bmxtu8-Mmao90G-88" value="" style="curved=1;startArrow=none;endArrow=block;exitX=0.5;exitY=1;entryX=1;entryY=0.27;rounded=0;" edge="1" parent="1" source="6FYP25Bmxtu8-Mmao90G-62" target="6FYP25Bmxtu8-Mmao90G-68">
          <mxGeometry relative="1" as="geometry">
            <Array as="points">
              <mxPoint x="754" y="770" />
            </Array>
          </mxGeometry>
        </mxCell>
        <mxCell id="6FYP25Bmxtu8-Mmao90G-89" value="" style="curved=1;startArrow=none;endArrow=block;exitX=0.5;exitY=1;entryX=0.5;entryY=0;rounded=0;" edge="1" parent="1" source="6FYP25Bmxtu8-Mmao90G-68" target="6FYP25Bmxtu8-Mmao90G-69">
          <mxGeometry relative="1" as="geometry">
            <Array as="points" />
          </mxGeometry>
        </mxCell>
        <mxCell id="6FYP25Bmxtu8-Mmao90G-90" value="" style="curved=1;startArrow=none;endArrow=block;exitX=0.5;exitY=1;entryX=0;entryY=0.25;rounded=0;" edge="1" parent="1" source="6FYP25Bmxtu8-Mmao90G-64" target="6FYP25Bmxtu8-Mmao90G-70">
          <mxGeometry relative="1" as="geometry">
            <Array as="points">
              <mxPoint x="817" y="874" />
            </Array>
          </mxGeometry>
        </mxCell>
        <mxCell id="6FYP25Bmxtu8-Mmao90G-91" value="" style="curved=1;startArrow=none;endArrow=block;exitX=0.5;exitY=1;entryX=0;entryY=0;rounded=0;" edge="1" parent="1" source="6FYP25Bmxtu8-Mmao90G-65" target="6FYP25Bmxtu8-Mmao90G-70">
          <mxGeometry relative="1" as="geometry">
            <Array as="points">
              <mxPoint x="999" y="874" />
            </Array>
          </mxGeometry>
        </mxCell>
        <mxCell id="6FYP25Bmxtu8-Mmao90G-92" value="" style="curved=1;startArrow=none;endArrow=block;exitX=0.5;exitY=1;entryX=0.48;entryY=0;rounded=0;" edge="1" parent="1" source="6FYP25Bmxtu8-Mmao90G-66" target="6FYP25Bmxtu8-Mmao90G-70">
          <mxGeometry relative="1" as="geometry">
            <Array as="points">
              <mxPoint x="1165" y="874" />
            </Array>
          </mxGeometry>
        </mxCell>
        <mxCell id="6FYP25Bmxtu8-Mmao90G-93" value="" style="curved=1;startArrow=none;endArrow=block;exitX=0.5;exitY=1;entryX=0.86;entryY=0;rounded=0;" edge="1" parent="1" source="6FYP25Bmxtu8-Mmao90G-67" target="6FYP25Bmxtu8-Mmao90G-70">
          <mxGeometry relative="1" as="geometry">
            <Array as="points">
              <mxPoint x="1298" y="874" />
            </Array>
          </mxGeometry>
        </mxCell>
        <mxCell id="6FYP25Bmxtu8-Mmao90G-94" value="" style="curved=1;startArrow=none;endArrow=block;exitX=0.5;exitY=1;entryX=0.5;entryY=0;rounded=0;" edge="1" parent="1" source="6FYP25Bmxtu8-Mmao90G-70" target="6FYP25Bmxtu8-Mmao90G-71">
          <mxGeometry relative="1" as="geometry">
            <Array as="points" />
          </mxGeometry>
        </mxCell>
      </root>
    </mxGraphModel>
  </diagram>
</mxfile>
